<svg xmlns="http://www.w3.org/2000/svg" version="1.1" xmlns:xlink="http://www.w3.org/1999/xlink" xmlns:svgjs="http://svgjs.dev/svgjs" width="1000" height="343" viewBox="0 0 1000 343"><g transform="matrix(1,0,0,1,-0.6060606060606233,-0.3299131459859552)"><svg viewBox="0 0 396 136" data-background-color="#5e1914" preserveAspectRatio="xMidYMid meet" height="343" width="1000" xmlns="http://www.w3.org/2000/svg" xmlns:xlink="http://www.w3.org/1999/xlink"><g id="tight-bounds" transform="matrix(1,0,0,1,0.2400000000000091,0.13081104330638027)"><svg viewBox="0 0 395.52 135.7383779133872" height="135.7383779133872" width="395.52"><g><svg viewBox="0 0 664.0096046612352 227.8812364877265" height="135.7383779133872" width="395.52"><g transform="matrix(1,0,0,1,268.4896046612353,54.10029241027741)"><svg viewBox="0 0 395.52 119.68065166717169" height="119.68065166717169" width="395.52"><g><svg viewBox="0 0 395.52 119.68065166717169" height="119.68065166717169" width="395.52"><g><svg viewBox="0 0 395.52 86.00698117027738" height="86.00698117027738" width="395.52"><g transform="matrix(1,0,0,1,0,0)"><svg width="395.52" viewBox="2.450000047683716 -40.150001525878906 250.73001098632812 53.70000076293945" height="86.00698117027738" data-palette-color="#ed1703"><g class="undefined-text-0" data-fill-palette-color="primary" id="text-0"><path d="M26.9-1.2L26.9-1.2Q21.35 3.05 15.65 3.05L15.65 3.05Q9.65 3.05 6.9-1.4L6.9-1.4Q4.95-4.65 4.95-8.63 4.95-12.6 6.4-16.55L6.4-16.55Q2.9-18.9 2.55-22.85L2.55-22.85Q2.45-23.6 2.45-24.35L2.45-24.35Q2.45-30.35 7.6-34.4L7.6-34.4Q13.1-38.7 20.6-38.7 28.1-38.7 33.02-34.52 37.95-30.35 37.95-22.6L37.95-22.6Q37.95-22.1 37.95-21.6L37.95-21.6Q42.95-24.9 44.45-27.9L44.45-27.9Q44.7-28.45 45.1-28.38 45.5-28.3 45.5-28.05 45.5-27.8 45.2-27.35L45.2-27.35Q42.25-22.7 37.75-19.85L37.75-19.85Q37.55-17.5 36.48-14.2 35.4-10.9 32.85-7.38 30.3-3.85 26.9-1.2ZM35-22.65L35-22.65Q35-31.1 29.6-35.15L29.6-35.15Q26-37.85 21.2-37.85L21.2-37.85Q19.8-37.85 18.35-37.6L18.35-37.6Q12.25-36.7 8.4-32.55L8.4-32.55Q5.15-28.95 5.15-24.4L5.15-24.4Q5.15-20.45 7.3-18.6L7.3-18.6Q9.25-22.75 13.05-27L13.05-27Q17.2-31.65 21.8-32.7L21.8-32.7Q22.55-32.85 23.73-32.85 24.9-32.85 26.45-31.9L26.45-31.9Q26.8-31.7 26.83-31.5 26.85-31.3 26.6-31.2 26.35-31.1 25.85-31.28 25.35-31.45 24.18-31.45 23-31.45 20.8-30.25 18.6-29.05 16.35-26.5L16.35-26.5Q11.9-21.45 9.85-16.9L9.85-16.9Q13-15.45 17.4-15.45L17.4-15.45Q19.35-15.45 21.55-15.7L21.55-15.7Q28.7-16.65 34.9-20L34.9-20Q35-21.35 35-22.65ZM34.6-18.25L34.6-18.25Q26.25-13.8 17-13.8L17-13.8Q12.5-13.8 9.1-15.15L9.1-15.15Q7.55-11.1 7.55-8.15L7.55-8.15Q7.55-1.25 11.7 0.8L11.7 0.8Q13.95 1.85 16.18 1.85 18.4 1.85 20.5 0.9L20.5 0.9Q24.9-1.1 28.4-5.35 31.9-9.6 33.7-14.7L33.7-14.7Q34.4-16.7 34.6-18.25ZM45.85-20.05L45.85-20.05Q45.85-17.8 43-15.8L43-15.8Q44-15.75 45.67-15.75 47.35-15.75 49.9-16L49.9-16Q50-15.85 50-15.2 50-14.55 49.4-13.28 48.8-12 48.32-11.08 47.85-10.15 47.42-9.33 47-8.5 46.47-7.3 45.95-6.1 45.6-5.1L45.6-5.1Q44.35-1.3 46-1.3L46-1.3Q48.1-1.3 52.2-9.65L52.2-9.65Q52.55-10.3 52.77-10.15 53-10 53-9.78 53-9.55 52.35-8.22 51.7-6.9 50.95-5.5 50.2-4.1 48.6-2.25L48.6-2.25Q46.7 0.05 44.95 0.05L44.95 0.05Q43 0.05 42.25-2.3L42.25-2.3Q42.1-2.75 42.1-3.65 42.1-4.55 42.67-6.05 43.25-7.55 44.5-9.7 45.75-11.85 45.9-12.23 46.05-12.6 46.05-12.95L46.05-12.95Q46.05-14.5 42.05-14.6L42.05-14.6 41.45-13Q38.3-4.75 35.4-1.95L35.4-1.95Q34.9-1.5 34.9-2.25L34.9-2.25Q34.9-2.4 35-2.6L35-2.6Q37.8-6.3 39.85-11.35 41.9-16.4 42.7-20.95L42.7-20.95Q43-22.5 44.1-22.5 45.2-22.5 45.7-21.1L45.7-21.1Q45.85-20.65 45.85-20.05ZM67.15-13.6L67.15-13.6Q67.15-11.4 66-8.75 64.85-6.1 62.82-3.65 60.8-1.2 57.9-0.3L57.9-0.3Q56.8 0 55.37 0 53.95 0 52.25-0.9L52.25-0.9 47.5 10.95Q46.75 12.55 46.1 13.05 45.45 13.55 44.85 13.55 44.25 13.55 44.12 13.55 44 13.55 43.22 13.4 42.45 13.25 42.05 13.3L42.05 13.3Q43.15 12.25 47.62 3.33 52.1-5.6 52.7-8.7L52.7-8.7Q52.15-7.9 51.65-7.85L51.65-7.85Q51.35-7.85 51.65-8.43 51.95-9 52.65-10.65L52.65-10.65Q53.55-12.8 53.55-14.63 53.55-16.45 52.85-16.75L52.85-16.75Q55.85-17.25 56.35-17.23 56.85-17.2 56.97-16.8 57.1-16.4 57.1-15.9L57.1-15.9Q57.1-12.85 55.7-9.1L55.7-9.1 56.7-10.7Q58.5-13.6 59.32-14.45 60.15-15.3 61.1-16.2L61.1-16.2Q62.55-17.6 63.9-17.6L63.9-17.6Q64.3-17.6 64.65-17.5L64.65-17.5Q67.15-16.85 67.15-13.6ZM64.75-14.1L64.75-14.1Q64.75-14.9 64.42-15.58 64.1-16.25 63.4-16.25L63.4-16.25Q61.65-16.25 59.32-13 57-9.75 52.65-1.65L52.65-1.65Q53.3-1 54.45-1 55.6-1 57.7-2.75L57.7-2.75Q61.05-5.55 63.3-9.7L63.3-9.7Q64.75-12.4 64.75-14.1ZM77.84-2.25L77.84-2.25Q77.84-0.85 78.84-0.85L78.84-0.85Q81.19-0.85 85.49-9.65L85.49-9.65Q85.84-10.35 86.12-10.2 86.39-10.05 86.39-9.8 86.39-9.55 85.82-8.38 85.24-7.2 84.67-6.13 84.09-5.05 82.99-3.3L82.99-3.3Q80.69 0.2 78.09 0.2L78.09 0.2Q76.39 0.2 75.39-1.2L75.39-1.2Q74.94-1.85 74.94-2.98 74.94-4.1 75.44-5.7 75.94-7.3 78.19-10.9L78.19-10.9Q78.74-11.8 78.74-12.33 78.74-12.85 77.89-12.85 77.04-12.85 74.64-10.6L74.64-10.6Q71.04-7.3 67.64-0.7L67.64-0.7Q67.29 0.05 65.79 0.05L65.79 0.05Q64.44 0.15 64.09 0.35L64.09 0.35Q73.59-19.4 77.84-27.2L77.84-27.2Q78.79-28.95 79.52-29.65 80.24-30.35 81.24-30.35L81.24-30.35Q81.49-30.35 82.29-30.23 83.09-30.1 83.49-30.15L83.49-30.15Q81.99-28.6 78.12-21.58 74.24-14.55 70.69-7.3L70.69-7.3Q73.04-10.25 74.92-11.9 76.79-13.55 79.49-15.03 82.19-16.5 83.44-16.5L83.44-16.5Q83.74-16.5 83.99-16.4L83.99-16.4Q77.84-5.6 77.84-2.25ZM100.74-13.55Q99.84-12.65 98.19-9.47 96.54-6.3 96.22-4.73 95.89-3.15 95.89-2.18 95.89-1.2 96.64-1.2L96.64-1.2Q97.59-1.2 98.99-2.95L98.99-2.95Q101.04-5.5 103.04-9.6L103.04-9.6Q103.24-10.05 103.49-10.1L103.49-10.1Q103.89-10.25 103.89-9.8L103.89-9.8Q103.89-9.55 103.74-9.2L103.74-9.2Q99.14 0.1 95.99 0.1L95.99 0.1Q94.54 0.1 93.64-1.3L93.64-1.3Q93.19-2.05 93.19-3.3 93.19-4.55 93.69-6.35L93.69-6.35Q89.69 0.1 86.79 0.1L86.79 0.1Q85.99 0.1 85.34-0.4L85.34-0.4Q83.84-1.45 83.84-4L83.84-4Q83.84-8.9 88.09-13.95L88.09-13.95Q90.49-16.75 93.99-17.6L93.99-17.6Q94.94-17.85 95.79-17.85L95.79-17.85Q98.09-17.85 99.69-16.25L99.69-16.25Q100.19-15.7 99.99-15.2 99.79-14.7 99.14-14.8L99.14-14.8Q98.59-16.6 96.74-16.6L96.74-16.6Q94.59-16.6 91.44-13.2L91.44-13.2Q89.64-11.2 88.09-8.5L88.09-8.5Q86.14-5.25 86.14-3.3 86.14-1.35 87.39-1.35L87.39-1.35Q90.39-1.35 95.24-10.55L95.24-10.55Q96.19-12.4 96.84-13.08 97.49-13.75 98.49-13.75L98.49-13.75Q98.69-13.75 99.52-13.6 100.34-13.45 100.74-13.55L100.74-13.55ZM118.14-16.4L118.14-16.4Q111.99-5.6 111.99-2.3L111.99-2.3Q111.99-1 112.94-1L112.94-1Q115.49-1 119.79-9.65L119.79-9.65Q120.09-10.35 120.39-10.2 120.69-10.05 120.69-9.8 120.69-9.55 120.49-9.2L120.49-9.2Q117.84-3.85 116.01-1.83 114.19 0.2 112.36 0.2 110.54 0.2 109.59-1.2L109.59-1.2Q109.09-1.85 109.09-2.98 109.09-4.1 109.59-5.7 110.09-7.3 112.34-10.9L112.34-10.9Q112.89-11.8 112.89-12.33 112.89-12.85 112.04-12.85 111.19-12.85 108.79-10.6L108.79-10.6Q105.19-7.3 101.84-0.7L101.84-0.7Q101.54-0.2 101.16-0.08 100.79 0.05 99.69 0.1 98.59 0.15 98.24 0.35L98.24 0.35Q99.04-1.25 101.39-6.2L101.39-6.2Q105.59-14.95 106.89-16.2L106.89-16.2Q107.49-16.8 108.54-16.8L108.54-16.8Q108.74-16.8 109.56-16.65 110.39-16.5 110.79-16.6L110.79-16.6Q108.94-15.6 104.74-7.2L104.74-7.2Q107.09-10.1 109.01-11.83 110.94-13.55 113.64-15.03 116.34-16.5 117.59-16.5L117.59-16.5Q117.89-16.5 118.14-16.4Z" fill="#ed1703" data-fill-palette-color="primary"></path><path d="M187.02-26.05Q189.44-31.45 191.29-34.23 193.14-37 194.77-37.58 196.39-38.15 196.97-38.15 197.54-38.15 197.54-38L197.54-38Q197.54-37.85 196.89-37.52 196.24-37.2 194.67-34.9 193.09-32.6 190.69-27.85 188.29-23.1 186.49-17.8L186.49-17.8Q189.54-17.8 190.36-18.1 191.19-18.4 191.36-18.2 191.54-18 190.89-17.55L190.89-17.55Q189.24-16.4 186.04-16.2L186.04-16.2Q185.99-16.1 185.24-13.8L185.24-13.8Q182.74-6.05 182.74-2.95L182.74-2.95Q182.74-1.2 183.37-0.5 183.99 0.2 184.69 0.2 185.39 0.2 186.24-0.4L186.24-0.4Q189.09-2.5 192.49-9.45L192.49-9.45Q192.89-10.3 193.27-10.15 193.64-10 193.24-9.1L193.24-9.1Q191.39-5.15 190.17-3.3 188.94-1.45 187.39 0.1L187.39 0.1Q185.34 2.05 183.29 2.05L183.29 2.05Q180.99 2.05 180.09 0.15L180.09 0.15Q179.64-0.75 179.64-1.5 179.64-2.25 179.67-3.08 179.69-3.9 179.84-5.23 179.99-6.55 180.57-8.53 181.14-10.5 181.47-11.53 181.79-12.55 182.44-14.3 183.09-16.05 183.14-16.2L183.14-16.2Q180.99-16.2 166.19-16.85L166.19-16.85Q163.14-7.75 156.59-0.55L156.59-0.55Q153.39 3 149.14 5.4L149.14 5.4Q143.44 8.55 137.14 8.55L137.14 8.55Q134.49 8.55 131.24 7.78 127.99 7 125.09 4.83 122.19 2.65 120.97-1.05 119.74-4.75 120.89-9.25L120.89-9.25Q121.49-11.55 123.57-13.55 125.64-15.55 126.99-15.6L126.99-15.6Q127.49-15.6 127.59-15.48 127.69-15.35 127.52-15.18 127.34-15 127.09-14.9L127.09-14.9Q125.59-14.25 123.99-12.05L123.99-12.05Q121.89-9.15 121.89-5.3L121.89-5.3Q121.89 0.7 127.69 3.65L127.69 3.65Q131.19 5.4 135.89 5.4L135.89 5.4Q137.94 5.4 139.74 5L139.74 5Q156.69 1.2 163.59-16.95L163.59-16.95Q162.29-16.95 161.07-16.38 159.84-15.8 159.47-15.8 159.09-15.8 159.04-16.1L159.04-16.1Q159.04-16.95 160.24-17.73 161.44-18.5 162.34-18.6L162.34-18.6 164.29-18.6Q167.49-26.6 171.59-34.8L171.59-34.8Q170.29-34.65 167.89-34.45 165.49-34.25 163.99-34.1 162.49-33.95 160.29-33.6 158.09-33.25 156.64-32.77 155.19-32.3 153.42-31.45 151.64-30.6 150.44-29.5L150.44-29.5Q147.59-26.8 146.39-22.9L146.39-22.9Q145.89-21.3 145.89-19.5 145.89-17.7 147.19-16 148.49-14.3 150.64-14.3L150.64-14.3Q154.89-14.3 156.69-19.2L156.69-19.2Q157.54-21.5 157.54-22.43 157.54-23.35 157.21-23.83 156.89-24.3 157.39-24.4L157.39-24.4Q157.74-24.45 157.99-24L157.99-24Q158.59-22.7 158.59-21.2 158.59-19.7 157.59-17.95L157.59-17.95Q155.89-14.85 152.99-13.8L152.99-13.8Q151.59-13.3 150.19-13.3 148.79-13.3 147.39-13.9L147.39-13.9Q144.74-15.05 143.49-17.8L143.49-17.8Q142.69-19.45 142.69-20.95 142.69-22.45 143.17-24.38 143.64-26.3 145.04-28.3 146.44-30.3 148.54-31.53 150.64-32.75 152.74-33.55 154.84-34.35 157.71-34.75 160.59-35.15 162.72-35.35 164.84-35.55 167.84-35.7 170.84-35.85 172.29-36L172.29-36Q172.84-36.95 173.97-38.33 175.09-39.7 175.89-39.93 176.69-40.15 177.14-40.15L177.14-40.15Q178.99-40.15 178.99-38.58 178.99-37 176.94-35.95 174.89-34.9 173.09-34.9L173.09-34.9Q171.74-32.3 169.27-25.63 166.79-18.95 166.64-18.6L166.64-18.6Q170.39-18.6 176.32-18.18 182.24-17.75 183.59-17.75L183.59-17.75Q184.59-20.65 187.02-26.05ZM176.49-38.6L176.49-38.6Q175.89-38.6 173.99-36.15L173.99-36.15Q177.24-36.65 177.19-37.9L177.19-37.9Q177.14-38.45 176.64-38.55L176.64-38.55Q176.59-38.6 176.49-38.6ZM201.69-17.5L201.69-17.5Q205.34-17.5 205.34-12.9L205.34-12.9Q205.34-10.8 204.24-8.4L204.24-8.4Q202.84-5.15 200.04-2.5L200.04-2.5Q200.69-1.25 202.39-1.25L202.39-1.25Q203.74-1.25 204.94-2.6L204.94-2.6Q206.44-4.15 207.09-5.33 207.74-6.5 208.04-7.05 208.34-7.6 208.81-8.63 209.29-9.65 209.39-9.88 209.49-10.1 209.74-10.1L209.74-10.1Q210.24-10.15 210.24-9.75L210.24-9.75Q210.24-9.6 210.14-9.4L210.14-9.4 209.84-8.7Q209.54-8 209.39-7.7 209.24-7.4 208.86-6.63 208.49-5.85 208.21-5.4 207.94-4.95 207.46-4.2 206.99-3.45 206.61-3 206.24-2.55 205.69-2 205.14-1.45 204.64-1.15L204.64-1.15Q203.39-0.4 202.29-0.4L202.29-0.4Q200.24-0.4 199.09-1.7L199.09-1.7Q196.79 0 194.84 0L194.84 0Q191.19 0 191.19-4.6L191.19-4.6Q191.19-6.7 192.29-9.1L192.29-9.1Q193.79-12.6 196.51-15.05 199.24-17.5 201.69-17.5ZM202.24-15.95L202.24-15.95Q200.89-15.95 199.04-14.15 197.19-12.35 195.74-9.25L195.74-9.25Q193.99-5.65 193.99-3.35 193.99-1.05 195.74-1.05L195.74-1.05Q196.99-1.05 198.54-2.4L198.54-2.4Q197.74-3.55 197.74-4.85L197.74-4.85Q197.84-7 199.49-7L199.49-7Q200.14-7 200.56-6.55 200.99-6.1 200.99-5.73 200.99-5.35 200.89-4.95L200.89-4.95Q201.74-6.2 202.84-8.5L202.84-8.5Q204.09-11.05 204.09-13.5 204.09-15.95 202.24-15.95ZM207.58-2.9L207.58-2.9Q207.58-5.05 209.44-8.1L209.44-8.1Q208.64-8.1 208.99-8.9L208.99-8.9 209.89-10.65Q211.58-13.9 212.69-16.15L212.69-16.15Q213.19-17.2 214.64-17.2L214.64-17.2 217.69-17.2Q215.89-15.9 214.06-12.18 212.24-8.45 211.24-6.33 210.24-4.2 210.24-3.1 210.24-2 210.61-1.55 210.99-1.1 211.64-1.1L211.64-1.1Q212.58-1.1 214.28-3.1L214.28-3.1Q216.94-6.2 221.74-16.15L221.74-16.15Q222.28-17.2 223.69-17.2L223.69-17.2 226.39-17.2Q225.28-16.35 224.66-15.45 224.03-14.55 222.94-12.25L222.94-12.25Q219.94-6.25 219.59-4.3L219.59-4.3Q219.44-3.6 219.44-3L219.44-3Q219.44-1.4 220.53-1.3L220.53-1.3Q223.24-1.3 227.19-9.65L227.19-9.65Q227.49-10.35 227.78-10.2 228.09-10.05 228.09-9.8 228.09-9.55 227.64-8.65 227.19-7.75 226.76-6.9 226.34-6.05 225.46-4.58 224.59-3.1 223.84-2.25L223.84-2.25Q221.89-0.05 220.01-0.05 218.14-0.05 217.44-1.7L217.44-1.7Q217.14-2.45 217.14-3.6 217.14-4.75 217.64-6.45L217.64-6.45Q213.99-0.05 210.89-0.05L210.89-0.05Q208.19-0.05 207.74-2.3L207.74-2.3Q207.58-2.55 207.58-2.9ZM231.43-0.95L231.43-0.95Q232.08-0.85 232.33-0.85L232.33-0.85Q234.33-0.85 236.28-3.2L236.28-3.2Q237.33-4.5 240.03-9.75L240.03-9.75Q240.13-10 240.38-10L240.38-10Q240.83-10.05 240.83-9.65L240.83-9.65Q240.83-9.55 240.61-9.08 240.38-8.6 240.18-8.13 239.98-7.65 239.53-6.75 239.08-5.85 238.76-5.3 238.43-4.75 237.93-3.95 237.43-3.15 236.93-2.7L236.93-2.7 235.88-1.6Q235.03-0.75 233.88-0.4L233.88-0.4Q232.03 0.2 230.28-0.3L230.28-0.3Q229.13 0.2 228.23 0.2L228.23 0.2Q224.68 0.2 223.93-2.6L223.93-2.6Q223.78-3.25 223.78-4.17 223.78-5.1 224.41-5.95 225.03-6.8 225.73-6.85L225.73-6.85Q228.28-11.7 230.08-15.6L230.08-15.6Q232.08-19.85 234.73-19.85L234.73-19.85Q235.43-19.85 236.11-19.53 236.78-19.2 236.61-18.8 236.43-18.4 235.88-18.65 235.33-18.9 234.93-18.9 234.53-18.9 234.23-18.75L234.23-18.75Q232.53-17.95 232.53-15.3L232.53-15.3Q232.53-13.9 232.93-13 233.33-12.1 233.83-11.05L233.83-11.05Q234.98-8.45 234.98-6.8L234.98-6.8Q234.98-5.15 233.93-3.55 232.88-1.95 231.43-0.95ZM229.73-1.3L229.73-1.3Q231.93-3 231.93-6.8L231.93-6.8Q231.93-8.35 231.58-11.05 231.23-13.75 231.23-14.7 231.23-15.65 231.28-16L231.28-16Q227.48-8.4 226.58-6.75L226.58-6.75Q227.63-6.75 227.63-5.25L227.63-5.25Q227.63-2.3 229.73-1.3ZM225.98-2.65L225.98-2.65Q225.98-2.35 226.03-2L226.03-2Q226.43-0.65 227.88-0.65L227.88-0.65Q228.48-0.65 228.88-0.85L228.88-0.85Q227.03-2 226.88-4.6L226.88-4.6Q225.98-3.7 225.98-2.65ZM242.18-7.7L242.18-7.7Q241.48-6 241.48-3.9L241.48-3.9Q241.48-2.5 242.11-1.68 242.73-0.85 243.88-0.85L243.88-0.85Q248.43-0.85 252.13-9.4L252.13-9.4Q252.48-10.2 252.98-10.1L252.98-10.1Q253.18-10.05 253.18-9.85 253.18-9.65 252.06-7.23 250.93-4.8 249.78-3.3L249.78-3.3Q247.23 0.2 243.48 0.2L243.48 0.2Q241.48 0.2 240.08-1.1 238.68-2.4 238.68-4.65 238.68-6.9 239.76-9.43 240.83-11.95 242.68-14.13 244.53-16.3 246.93-17.3L246.93-17.3Q248.08-17.8 249.13-17.8 250.18-17.8 251.08-17.2L251.08-17.2Q251.93-16.5 251.93-15.65L251.93-15.65Q251.93-12.65 248.33-9.9L248.33-9.9Q247.23-9.05 245.23-8.38 243.23-7.7 242.18-7.7ZM250.58-15.7L250.58-15.7Q250.58-16.7 249.78-16.7L249.78-16.7Q248.38-16.7 245.53-13.25L245.53-13.25Q243.83-11.15 242.53-8.55L242.53-8.55Q243.38-8.55 245.01-9.15 246.63-9.75 247.83-10.75L247.83-10.75Q250.58-13.1 250.58-15.7Z" fill="#ff908b" data-fill-palette-color="secondary"></path></g></svg></g></svg></g><g transform="matrix(1,0,0,1,0,106.31116525703179)"><svg viewBox="0 0 232.209792 13.369486410139901" height="13.369486410139901" width="232.209792"><g transform="matrix(1,0,0,1,0,0)"><svg width="232.209792" viewBox="5 -37.5 836.2100219726562 48.150001525878906" height="13.369486410139901" data-palette-color="#ff908b"><path d="M12.2-34.45Q20-34.45 24.73-30.83 29.45-27.2 29.45-17.4L29.45-17.4Q29.45-7.85 24.73-3.93 20 0 13.25 0L13.25 0 5 0 5-34.45 12.2-34.45ZM13.25-30.65L9.75-30.65 9.75-3.75 13.6-3.75Q18.4-3.75 21.4-6.7 24.4-9.65 24.4-17.4L24.4-17.4Q24.4-22.85 22.85-25.78 21.3-28.7 18.9-29.68 16.5-30.65 13.25-30.65L13.25-30.65ZM46.85-26.95Q52.4-26.95 55.47-23.25 58.55-19.55 58.55-13.2L58.55-13.2Q58.55-9.1 57.15-5.98 55.75-2.85 53.1-1.13 50.45 0.6 46.8 0.6L46.8 0.6Q41.25 0.6 38.15-3.1 35.05-6.8 35.05-13.15L35.05-13.15Q35.05-17.25 36.45-20.38 37.85-23.5 40.5-25.23 43.15-26.95 46.85-26.95L46.85-26.95ZM46.85-23.25Q40-23.25 40-13.15L40-13.15Q40-3.1 46.8-3.1L46.8-3.1Q53.6-3.1 53.6-13.2L53.6-13.2Q53.6-23.25 46.85-23.25L46.85-23.25ZM78.55-26.95Q82.15-26.95 84.17-24.8 86.2-22.65 86.2-18.9L86.2-18.9 86.2 0 81.6 0 81.6-18.25Q81.6-21.05 80.55-22.2 79.5-23.35 77.45-23.35L77.45-23.35Q75.35-23.35 73.75-22.15 72.15-20.95 70.75-18.7L70.75-18.7 70.75 0 66.15 0 66.15-26.35 70.1-26.35 70.5-22.45Q71.9-24.55 73.97-25.75 76.05-26.95 78.55-26.95L78.55-26.95ZM97.89-21.35L94.44-21.35 93.69-34.45 98.64-34.45 97.89-21.35ZM117.94-4.25L119.69-1.2Q117.09 0.6 113.79 0.6L113.79 0.6Q110.44 0.6 108.57-1.33 106.69-3.25 106.69-6.9L106.69-6.9 106.69-22.8 102.09-22.8 102.09-26.35 106.69-26.35 106.69-32.3 111.29-32.85 111.29-26.35 117.54-26.35 117.04-22.8 111.29-22.8 111.29-7.1Q111.29-5.05 112.02-4.13 112.74-3.2 114.44-3.2L114.44-3.2Q115.99-3.2 117.94-4.25L117.94-4.25ZM143.44-34.45L143.44-4.8Q143.44 0.3 141.21 2.85 138.99 5.4 134.44 6.85L134.44 6.85 133.19 3.4Q135.49 2.5 136.63 1.45 137.78 0.4 138.24-1.1 138.69-2.6 138.69-5L138.69-5 138.69-34.45 143.44-34.45ZM172.53-26.35L172.53 0 168.58 0 168.23-4.1Q166.73-1.65 164.78-0.53 162.83 0.6 160.03 0.6L160.03 0.6Q156.58 0.6 154.63-1.5 152.68-3.6 152.68-7.45L152.68-7.45 152.68-26.35 157.28-26.35 157.28-7.95Q157.28-5.25 158.23-4.13 159.18-3 161.33-3L161.33-3Q165.18-3 167.93-7.55L167.93-7.55 167.93-26.35 172.53-26.35ZM189.18-26.95Q191.88-26.95 194.03-26.2 196.18-25.45 198.13-23.95L198.13-23.95 196.18-21.05Q194.38-22.2 192.75-22.75 191.13-23.3 189.33-23.3L189.33-23.3Q187.08-23.3 185.78-22.38 184.48-21.45 184.48-19.85L184.48-19.85Q184.48-18.25 185.71-17.35 186.93-16.45 190.13-15.6L190.13-15.6Q194.53-14.5 196.71-12.6 198.88-10.7 198.88-7.4L198.88-7.4Q198.88-3.5 195.85-1.45 192.83 0.6 188.48 0.6L188.48 0.6Q182.48 0.6 178.53-2.85L178.53-2.85 180.98-5.65Q184.33-3.1 188.38-3.1L188.38-3.1Q190.98-3.1 192.5-4.17 194.03-5.25 194.03-7.1L194.03-7.1Q194.03-8.45 193.48-9.28 192.93-10.1 191.58-10.73 190.23-11.35 187.63-12.05L187.63-12.05Q183.43-13.15 181.56-15 179.68-16.85 179.68-19.7L179.68-19.7Q179.68-21.75 180.91-23.43 182.13-25.1 184.31-26.03 186.48-26.95 189.18-26.95L189.18-26.95ZM216.93-4.25L218.68-1.2Q216.08 0.6 212.78 0.6L212.78 0.6Q209.43 0.6 207.55-1.33 205.68-3.25 205.68-6.9L205.68-6.9 205.68-22.8 201.08-22.8 201.08-26.35 205.68-26.35 205.68-32.3 210.28-32.85 210.28-26.35 216.53-26.35 216.03-22.8 210.28-22.8 210.28-7.1Q210.28-5.05 211-4.13 211.73-3.2 213.43-3.2L213.43-3.2Q214.98-3.2 216.93-4.25L216.93-4.25ZM267.62-34.45L271.97-34.45 264.97 0 258.87 0 252.52-28.85 246.12 0 240.17 0 233.17-34.45 237.82-34.45 243.37-4.15 250.02-34.45 255.07-34.45 261.87-4.15 267.62-34.45ZM295.72-6.15Q295.72-4.55 296.27-3.78 296.82-3 297.92-2.6L297.92-2.6 296.87 0.6Q294.82 0.35 293.57-0.55 292.32-1.45 291.72-3.35L291.72-3.35Q289.07 0.6 283.87 0.6L283.87 0.6Q279.97 0.6 277.72-1.6 275.47-3.8 275.47-7.35L275.47-7.35Q275.47-11.55 278.5-13.8 281.52-16.05 287.07-16.05L287.07-16.05 291.12-16.05 291.12-18Q291.12-20.8 289.77-22 288.42-23.2 285.62-23.2L285.62-23.2Q282.72-23.2 278.52-21.8L278.52-21.8 277.37-25.15Q282.27-26.95 286.47-26.95L286.47-26.95Q291.12-26.95 293.42-24.68 295.72-22.4 295.72-18.2L295.72-18.2 295.72-6.15ZM284.92-2.85Q288.87-2.85 291.12-6.95L291.12-6.95 291.12-13 287.67-13Q280.37-13 280.37-7.6L280.37-7.6Q280.37-5.25 281.52-4.05 282.67-2.85 284.92-2.85L284.92-2.85ZM316.72-4.25L318.47-1.2Q315.87 0.6 312.57 0.6L312.57 0.6Q309.22 0.6 307.34-1.33 305.47-3.25 305.47-6.9L305.47-6.9 305.47-22.8 300.87-22.8 300.87-26.35 305.47-26.35 305.47-32.3 310.07-32.85 310.07-26.35 316.32-26.35 315.82-22.8 310.07-22.8 310.07-7.1Q310.07-5.05 310.79-4.13 311.52-3.2 313.22-3.2L313.22-3.2Q314.77-3.2 316.72-4.25L316.72-4.25ZM332.82-26.95Q335.17-26.95 337.12-26.28 339.07-25.6 340.87-24.1L340.87-24.1 338.67-21.2Q337.27-22.2 335.94-22.68 334.62-23.15 333.02-23.15L333.02-23.15Q329.82-23.15 328.04-20.6 326.27-18.05 326.27-13.05L326.27-13.05Q326.27-8.05 328.02-5.68 329.77-3.3 333.02-3.3L333.02-3.3Q334.57-3.3 335.87-3.78 337.17-4.25 338.77-5.3L338.77-5.3 340.87-2.3Q337.27 0.6 332.82 0.6L332.82 0.6Q327.47 0.6 324.39-3 321.32-6.6 321.32-12.95L321.32-12.95Q321.32-17.15 322.72-20.3 324.12-23.45 326.69-25.2 329.27-26.95 332.82-26.95L332.82-26.95ZM359.51-26.95Q363.11-26.95 365.14-24.8 367.16-22.65 367.16-18.9L367.16-18.9 367.16 0 362.56 0 362.56-18.25Q362.56-21.05 361.49-22.2 360.41-23.35 358.36-23.35L358.36-23.35Q356.31-23.35 354.71-22.15 353.11-20.95 351.71-18.75L351.71-18.75 351.71 0 347.11 0 347.11-36.9 351.71-37.4 351.71-22.7Q354.81-26.95 359.51-26.95L359.51-26.95ZM385.66-34.45L410.26-34.45 409.76-30.4 400.21-30.4 400.21 0 395.46 0 395.46-30.4 385.66-30.4 385.66-34.45ZM427.91-26.95Q431.51-26.95 433.53-24.8 435.56-22.65 435.56-18.9L435.56-18.9 435.56 0 430.96 0 430.96-18.25Q430.96-21.05 429.88-22.2 428.81-23.35 426.76-23.35L426.76-23.35Q424.71-23.35 423.11-22.15 421.51-20.95 420.11-18.75L420.11-18.75 420.11 0 415.51 0 415.51-36.9 420.11-37.4 420.11-22.7Q423.21-26.95 427.91-26.95L427.91-26.95ZM464.7-13.95Q464.7-12.8 464.6-11.6L464.6-11.6 447.8-11.6Q448.1-7.25 450-5.2 451.9-3.15 454.9-3.15L454.9-3.15Q456.8-3.15 458.4-3.7 460-4.25 461.75-5.45L461.75-5.45 463.75-2.7Q459.55 0.6 454.55 0.6L454.55 0.6Q449.05 0.6 445.98-3 442.9-6.6 442.9-12.9L442.9-12.9Q442.9-17 444.23-20.18 445.55-23.35 448.03-25.15 450.5-26.95 453.85-26.95L453.85-26.95Q459.1-26.95 461.9-23.5 464.7-20.05 464.7-13.95L464.7-13.95ZM460.15-15L460.15-15.3Q460.15-19.2 458.6-21.25 457.05-23.3 453.95-23.3L453.95-23.3Q448.3-23.3 447.8-15L447.8-15 460.15-15ZM516.25-34.45L520.6-34.45 513.6 0 507.5 0 501.15-28.85 494.75 0 488.8 0 481.8-34.45 486.45-34.45 492-4.15 498.65-34.45 503.7-34.45 510.5-4.15 516.25-34.45ZM536.5-26.95Q542.05-26.95 545.12-23.25 548.2-19.55 548.2-13.2L548.2-13.2Q548.2-9.1 546.8-5.98 545.39-2.85 542.75-1.13 540.1 0.6 536.45 0.6L536.45 0.6Q530.89 0.6 527.8-3.1 524.7-6.8 524.7-13.15L524.7-13.15Q524.7-17.25 526.1-20.38 527.5-23.5 530.14-25.23 532.8-26.95 536.5-26.95L536.5-26.95ZM536.5-23.25Q529.64-23.25 529.64-13.15L529.64-13.15Q529.64-3.1 536.45-3.1L536.45-3.1Q543.25-3.1 543.25-13.2L543.25-13.2Q543.25-23.25 536.5-23.25L536.5-23.25ZM567.24-26.95Q568.64-26.95 569.84-26.65L569.84-26.65 568.99-22.15Q567.79-22.45 566.69-22.45L566.69-22.45Q564.24-22.45 562.74-20.65 561.24-18.85 560.39-15.05L560.39-15.05 560.39 0 555.79 0 555.79-26.35 559.74-26.35 560.19-21Q561.24-23.95 563.04-25.45 564.84-26.95 567.24-26.95L567.24-26.95ZM580.34 0.6Q577.79 0.6 576.31-0.93 574.84-2.45 574.84-5.2L574.84-5.2 574.84-36.95 579.44-37.5 579.44-5.3Q579.44-4.2 579.81-3.7 580.19-3.2 581.09-3.2L581.09-3.2Q582.04-3.2 582.79-3.5L582.79-3.5 583.99-0.3Q582.34 0.6 580.34 0.6L580.34 0.6ZM605.54-37.5L610.14-36.95 610.14 0 606.09 0 605.64-3.65Q604.34-1.65 602.39-0.53 600.44 0.6 598.04 0.6L598.04 0.6Q593.34 0.6 590.71-3.1 588.09-6.8 588.09-13.05L588.09-13.05Q588.09-17.1 589.34-20.25 590.59-23.4 592.94-25.18 595.29-26.95 598.44-26.95L598.44-26.95Q602.49-26.95 605.54-23.7L605.54-23.7 605.54-37.5ZM599.04-3.05Q601.14-3.05 602.64-4.03 604.14-5 605.54-6.95L605.54-6.95 605.54-19.85Q604.24-21.55 602.76-22.43 601.29-23.3 599.44-23.3L599.44-23.3Q596.39-23.3 594.71-20.75 593.04-18.2 593.04-13.15L593.04-13.15Q593.04-8.05 594.59-5.55 596.14-3.05 599.04-3.05L599.04-3.05ZM645.18-35.05Q648.28-35.05 650.41-34.25 652.53-33.45 654.73-31.65L654.73-31.65 652.13-28.6Q648.98-31.15 645.48-31.15L645.48-31.15Q641.18-31.15 638.56-27.85 635.93-24.55 635.93-17.25L635.93-17.25Q635.93-10.15 638.53-6.78 641.13-3.4 645.43-3.4L645.43-3.4Q647.63-3.4 649.28-4.15 650.93-4.9 652.78-6.25L652.78-6.25 655.13-3.25Q653.53-1.6 651.03-0.5 648.53 0.6 645.28 0.6L645.28 0.6Q641.08 0.6 637.81-1.48 634.53-3.55 632.71-7.58 630.88-11.6 630.88-17.25L630.88-17.25Q630.88-22.9 632.78-26.93 634.68-30.95 637.93-33 641.18-35.05 645.18-35.05L645.18-35.05ZM673.28-26.95Q676.88-26.95 678.9-24.8 680.93-22.65 680.93-18.9L680.93-18.9 680.93 0 676.33 0 676.33-18.25Q676.33-21.05 675.25-22.2 674.18-23.35 672.13-23.35L672.13-23.35Q670.08-23.35 668.48-22.15 666.88-20.95 665.48-18.75L665.48-18.75 665.48 0 660.88 0 660.88-36.9 665.48-37.4 665.48-22.7Q668.58-26.95 673.28-26.95L673.28-26.95ZM707.93-6.15Q707.93-4.55 708.48-3.78 709.03-3 710.13-2.6L710.13-2.6 709.08 0.6Q707.03 0.35 705.78-0.55 704.53-1.45 703.93-3.35L703.93-3.35Q701.28 0.6 696.08 0.6L696.08 0.6Q692.18 0.6 689.93-1.6 687.68-3.8 687.68-7.35L687.68-7.35Q687.68-11.55 690.7-13.8 693.73-16.05 699.28-16.05L699.28-16.05 703.33-16.05 703.33-18Q703.33-20.8 701.98-22 700.63-23.2 697.83-23.2L697.83-23.2Q694.93-23.2 690.73-21.8L690.73-21.8 689.58-25.15Q694.48-26.95 698.68-26.95L698.68-26.95Q703.33-26.95 705.63-24.68 707.93-22.4 707.93-18.2L707.93-18.2 707.93-6.15ZM697.13-2.85Q701.08-2.85 703.33-6.95L703.33-6.95 703.33-13 699.88-13Q692.58-13 692.58-7.6L692.58-7.6Q692.58-5.25 693.73-4.05 694.88-2.85 697.13-2.85L697.13-2.85ZM729.77-26.95Q733.37-26.95 735.4-24.8 737.42-22.65 737.42-18.9L737.42-18.9 737.42 0 732.82 0 732.82-18.25Q732.82-21.05 731.77-22.2 730.72-23.35 728.67-23.35L728.67-23.35Q726.57-23.35 724.97-22.15 723.37-20.95 721.97-18.7L721.97-18.7 721.97 0 717.37 0 717.37-26.35 721.32-26.35 721.72-22.45Q723.12-24.55 725.2-25.75 727.27-26.95 729.77-26.95L729.77-26.95ZM766.57-29.3L767.92-25.15Q766.42-24.65 764.62-24.5 762.82-24.35 760.22-24.35L760.22-24.35Q764.87-22.25 764.87-17.7L764.87-17.7Q764.87-13.75 762.17-11.25 759.47-8.75 754.82-8.75L754.82-8.75Q753.02-8.75 751.47-9.25L751.47-9.25Q750.87-8.85 750.52-8.18 750.17-7.5 750.17-6.8L750.17-6.8Q750.17-4.65 753.62-4.65L753.62-4.65 757.82-4.65Q760.47-4.65 762.52-3.7 764.57-2.75 765.7-1.1 766.82 0.55 766.82 2.65L766.82 2.65Q766.82 6.5 763.67 8.58 760.52 10.65 754.47 10.65L754.47 10.65Q750.22 10.65 747.75 9.78 745.27 8.9 744.22 7.15 743.17 5.4 743.17 2.65L743.17 2.65 747.32 2.65Q747.32 4.25 747.92 5.18 748.52 6.1 750.07 6.58 751.62 7.05 754.47 7.05L754.47 7.05Q758.62 7.05 760.4 6.03 762.17 5 762.17 2.95L762.17 2.95Q762.17 1.1 760.77 0.15 759.37-0.8 756.87-0.8L756.87-0.8 752.72-0.8Q749.37-0.8 747.65-2.23 745.92-3.65 745.92-5.8L745.92-5.8Q745.92-7.1 746.67-8.3 747.42-9.5 748.82-10.45L748.82-10.45Q746.52-11.65 745.45-13.43 744.37-15.2 744.37-17.75L744.37-17.75Q744.37-20.4 745.7-22.5 747.02-24.6 749.35-25.78 751.67-26.95 754.52-26.95L754.52-26.95Q757.62-26.9 759.72-27.18 761.82-27.45 763.2-27.93 764.57-28.4 766.57-29.3L766.57-29.3ZM754.52-23.65Q751.92-23.65 750.5-22.03 749.07-20.4 749.07-17.75L749.07-17.75Q749.07-15.05 750.52-13.43 751.97-11.8 754.62-11.8L754.62-11.8Q757.32-11.8 758.75-13.38 760.17-14.95 760.17-17.8L760.17-17.8Q760.17-23.65 754.52-23.65L754.52-23.65ZM792.57-13.95Q792.57-12.8 792.47-11.6L792.47-11.6 775.67-11.6Q775.97-7.25 777.87-5.2 779.77-3.15 782.77-3.15L782.77-3.15Q784.67-3.15 786.27-3.7 787.87-4.25 789.62-5.45L789.62-5.45 791.62-2.7Q787.42 0.6 782.42 0.6L782.42 0.6Q776.92 0.6 773.84-3 770.77-6.6 770.77-12.9L770.77-12.9Q770.77-17 772.09-20.18 773.42-23.35 775.89-25.15 778.37-26.95 781.72-26.95L781.72-26.95Q786.97-26.95 789.77-23.5 792.57-20.05 792.57-13.95L792.57-13.95ZM788.02-15L788.02-15.3Q788.02-19.2 786.47-21.25 784.92-23.3 781.82-23.3L781.82-23.3Q776.17-23.3 775.67-15L775.67-15 788.02-15ZM813.41-34.45L818.16-34.45 818.16 0 813.41 0 813.41-34.45ZM839.46-4.25L841.21-1.2Q838.61 0.6 835.31 0.6L835.31 0.6Q831.96 0.6 830.09-1.33 828.21-3.25 828.21-6.9L828.21-6.9 828.21-22.8 823.61-22.8 823.61-26.35 828.21-26.35 828.21-32.3 832.81-32.85 832.81-26.35 839.06-26.35 838.56-22.8 832.81-22.8 832.81-7.1Q832.81-5.05 833.54-4.13 834.26-3.2 835.96-3.2L835.96-3.2Q837.51-3.2 839.46-4.25L839.46-4.25Z" opacity="1" transform="matrix(1,0,0,1,0,0)" fill="#ff908b" class="undefined-text-1" data-fill-palette-color="secondary" id="text-1"></path></svg></g></svg></g></svg></g></svg></g><g><svg viewBox="0 0 227.8812364877265 227.8812364877265" height="227.8812364877265" width="227.8812364877265"><g><svg></svg></g><g id="icon-0"><svg viewBox="0 0 227.8812364877265 227.8812364877265" height="227.8812364877265" width="227.8812364877265"><g><path d="M0 113.941c0-62.928 51.013-113.941 113.941-113.941 62.928 0 113.941 51.013 113.94 113.941 0 62.928-51.013 113.941-113.94 113.94-62.928 0-113.941-51.013-113.941-113.94zM113.941 220.125c58.644 0 106.184-47.54 106.184-106.184 0-58.644-47.54-106.184-106.184-106.185-58.644 0-106.184 47.54-106.185 106.185 0 58.644 47.54 106.184 106.185 106.184z" data-fill-palette-color="accent" fill="#ff908b" stroke="transparent"></path></g><g transform="matrix(1,0,0,1,52.004825471164786,47.49884846967835)"><svg viewBox="0 0 123.87158554539694 132.8835395483698" height="132.8835395483698" width="123.87158554539694"><g><svg xmlns="http://www.w3.org/2000/svg" xmlns:xlink="http://www.w3.org/1999/xlink" version="1.1" x="0" y="0" viewBox="1.8580000400543213 0.12209254503250122 46.869998931884766 50.279903411865234" enable-background="new 0 0 50.4 50.4" xml:space="preserve" width="123.87158554539694" height="132.8835395483698" class="icon-c-0" data-fill-palette-color="accent" id="c-0"><g fill="#ff908b" data-fill-palette-color="accent"><path d="M30.566 24.642c0.072 0.354 0.065 0.727-0.038 1.082-0.09 0.334-0.271 0.649-0.516 0.91-0.832 0.843-2.194 0.863-3.048 0.042l-4.222-4.119-0.672 0.758 4.228 4.121c1.152 1.119 3.242 1.234 4.378 0.085 0.39-0.402 0.728-1.249 0.844-1.776h8.611c1.199 0 2.386 1.118 2.386 2.311 0 1.205-0.736 2.348-2.386 2.348H25.309c-0.773-0.021-1.644-0.324-2.315-0.894l-9.471-7.146L1.858 22.334v-7.778l17.109 0.029c0 0 1.131 0.024 1.912 0.477 0.72 0.421 1.359 1.034 1.359 1.034l7.726 7.502C30.258 23.882 30.464 24.24 30.566 24.642z" fill="#ff908b" data-fill-palette-color="accent"></path><circle cx="21.65" cy="5.899" r="4.7" fill="#ff908b" data-fill-palette-color="accent"></circle><path d="M45.391 12.585c-2.341-0.625-4.674-1.251-7.01-1.874-0.484-0.135-1.048-0.188-1.419-0.071-0.729 0.23-1.262 0.806-1.463 1.811-0.134 0.649-0.268 1.3-0.395 1.952-1.386-1.386-2.772-2.777-4.157-4.163 0 0-0.001-0.001-0.007-0.004 0.771-0.767 2.799-2.736 3.567-3.505 0.927-0.924 0.608-2.111-0.154-2.778-0.431-0.428-2.594-2.575-3.29-3.264-1.763-1.758-4.479 0.975-2.717 2.731 0.669 0.667 1.34 1.334 2.012 2.001-1.675 1.655-3.727 3.672-5.054 4.996-0.218 0.218-0.371 0.456-0.463 0.695-0.786 1.462-0.576 3.356 0.644 4.582 2.21 2.212 4.418 4.425 6.633 6.64 1.484 1.485 3.963 1.491 5.452 0.003 1.012-1.01 1.167-2.637 1.19-2.748 0.305-1.515 0.611-3.029 0.924-4.541 1.572 0.422 3.15 0.846 4.726 1.266C46.807 16.955 47.797 13.229 45.391 12.585z" fill="#ff908b" data-fill-palette-color="accent"></path><path d="M14.195 32.039c1.485 0.003 2.232 0.704 2.972 2.104 0.742-1.4 1.488-2.102 2.973-2.104 1.65-0.003 2.992 1.265 2.995 2.828 0.004 2.832-2.981 5.671-5.967 8.509-2.986-2.838-5.972-5.677-5.968-8.509C11.203 33.304 12.544 32.036 14.195 32.039z" fill="#ff908b" data-fill-palette-color="accent"></path><path d="M20.021 44.64c-0.073 0.354-0.065 0.726 0.038 1.081 0.09 0.335 0.271 0.649 0.515 0.91 0.833 0.843 2.195 0.863 3.048 0.042l4.221-4.119 0.673 0.758-4.228 4.121c-1.152 1.119-3.243 1.234-4.378 0.084-0.39-0.401-0.728-1.248-0.844-1.775h-8.611c-1.2 0-2.386 1.118-2.386 2.312 0 1.205 0.736 2.348 2.386 2.348h14.823c0.772-0.021 1.645-0.324 2.313-0.894l9.472-7.146 11.665-0.044v-7.732h-17.11c0 0-1.131 0.023-1.911 0.478-0.721 0.42-1.357 1.032-1.357 1.032l-7.727 7.502C20.329 43.88 20.123 44.237 20.021 44.64z" fill="#ff908b" data-fill-palette-color="accent"></path></g></svg></g></svg></g></svg></g></svg></g></svg></g><defs></defs></svg><rect width="395.52" height="135.7383779133872" fill="none" stroke="none" visibility="hidden"></rect></g></svg></g></svg>